<svg width="53" height="42" viewBox="0 0 53 42" fill="none" xmlns="http://www.w3.org/2000/svg">
<path d="M32 0C43.598 0 53 9.40202 53 21C53 32.598 43.598 42 32 42C22.1252 42 13.8438 35.1838 11.6006 26H13.667C15.8621 34.0674 23.2372 40 32 40C42.4934 40 51 31.4934 51 21C51 10.5066 42.4934 2 32 2C23.2372 2 15.8621 7.93261 13.667 16H11.6006C13.8438 6.81618 22.1252 0 32 0Z" fill="#9F9F9F"/>
<line y1="21" x2="32" y2="21" stroke="#9F9F9F" stroke-width="2"/>
<path d="M24.2539 21.3366L29.079 22.6787C29.1366 22.6953 29.189 22.7262 29.2314 22.7686C29.2738 22.811 29.3047 22.8634 29.3213 22.921L30.6634 27.7461C30.6843 27.8192 30.7284 27.8836 30.7892 27.9294C30.8499 27.9752 30.9239 28 31 28C31.0761 28 31.1501 27.9752 31.2108 27.9294C31.2716 27.8836 31.3157 27.8192 31.3366 27.7461L32.6787 22.921C32.6953 22.8634 32.7262 22.811 32.7686 22.7686C32.811 22.7262 32.8634 22.6953 32.921 22.6787L37.7461 21.3366C37.8192 21.3157 37.8836 21.2716 37.9294 21.2108C37.9752 21.1501 38 21.0761 38 21C38 20.9239 37.9752 20.8499 37.9294 20.7892C37.8836 20.7284 37.8192 20.6843 37.7461 20.6634L32.921 19.3213C32.8634 19.3047 32.811 19.2738 32.7686 19.2314C32.7262 19.189 32.6953 19.1366 32.6787 19.079L31.3366 14.2539C31.3157 14.1808 31.2716 14.1164 31.2108 14.0706C31.1501 14.0248 31.0761 14 31 14C30.9239 14 30.8499 14.0248 30.7892 14.0706C30.7284 14.1164 30.6843 14.1808 30.6634 14.2539L29.3213 19.079C29.3047 19.1366 29.2738 19.189 29.2314 19.2314C29.189 19.2738 29.1366 19.3047 29.079 19.3213L24.2539 20.6634C24.1808 20.6843 24.1164 20.7284 24.0706 20.7892C24.0248 20.8499 24 20.9239 24 21C24 21.0761 24.0248 21.1501 24.0706 21.2108C24.1164 21.2716 24.1808 21.3157 24.2539 21.3366Z" fill="#9F9F9F"/>
</svg>
